<svg width="32" height="33" viewBox="0 0 32 33" fill="none" xmlns="http://www.w3.org/2000/svg">
<rect y="0.5" width="32" height="32" rx="8" fill="#F3F9FF"/>
<path d="M17.4732 15.6518C18.2868 16.4654 18.2868 17.7845 17.4732 18.5981C16.6596 19.4117 15.3405 19.4117 14.5269 18.5981C13.7133 17.7845 13.7133 16.4654 14.5269 15.6518C15.3405 14.8382 16.6596 14.8382 17.4732 15.6518" stroke="#1E96FC" stroke-linecap="round" stroke-linejoin="round"/>
<path d="M22.0448 10.6519C22.8584 11.4654 22.8584 12.7845 22.0448 13.5981C21.2312 14.4117 19.9122 14.4117 19.0986 13.5981C18.285 12.7845 18.285 11.4654 19.0986 10.6519C19.9122 9.83826 21.2312 9.83826 22.0448 10.6519" stroke="#1E96FC" stroke-linecap="round" stroke-linejoin="round"/>
<path d="M21 16.7083C22.2775 16.7083 23.5 17.1525 24.3333 17.8192" stroke="#1E96FC" stroke-linecap="round" stroke-linejoin="round"/>
<path d="M12.9015 10.6519C13.7151 11.4654 13.7151 12.7845 12.9015 13.5981C12.0879 14.4117 10.7688 14.4117 9.95521 13.5981C9.14162 12.7845 9.14162 11.4654 9.95521 10.6519C10.7688 9.83826 12.0879 9.83826 12.9015 10.6519" stroke="#1E96FC" stroke-linecap="round" stroke-linejoin="round"/>
<path d="M7.66667 17.8192C8.50001 17.1525 9.72251 16.7083 11 16.7083" stroke="#1E96FC" stroke-linecap="round" stroke-linejoin="round"/>
<path d="M19.8258 22.9583C18.855 22.2075 17.46 21.7083 16 21.7083C14.54 21.7083 13.145 22.2075 12.1742 22.9583" stroke="#1E96FC" stroke-linecap="round" stroke-linejoin="round"/>
</svg>
