<svg width="36" height="36" viewBox="0 0 36 36" fill="none" xmlns="http://www.w3.org/2000/svg">
<rect width="36" height="36" rx="12" fill="#FEADAD"/>
<path d="M8.66667 27.3333C8.66667 24.4167 11 22.0833 13.9167 22.0833H16.95" stroke="white" stroke-linecap="round" stroke-linejoin="round"/>
<path d="M21.5 10.0667C23.4833 12.05 23.4833 15.2 21.5 17.0667C19.5167 18.9333 16.3667 19.05 14.5 17.0667C12.6333 15.0833 12.5167 11.9333 14.5 10.0667C16.4833 8.19999 19.5167 8.19999 21.5 10.0667" stroke="white" stroke-linecap="round" stroke-linejoin="round"/>
<path d="M25.4667 22.4333C26.6333 23.6 26.6333 25.4667 25.4667 26.6333C24.3 27.8 22.4333 27.8 21.2667 26.6333C20.1 25.4667 20.1 23.6 21.2667 22.4333C22.4333 21.2667 24.3 21.2667 25.4667 22.4333" stroke="white" stroke-linecap="round" stroke-linejoin="round"/>
<path d="M27.3333 28.5L25.4667 26.6333" stroke="white" stroke-linecap="round" stroke-linejoin="round"/>
</svg>
